<svg width="59" height="59" viewBox="0 0 59 59" fill="none" xmlns="http://www.w3.org/2000/svg">
<path d="M8.60421 10.1657C8.60421 7.94559 10.4039 6.14587 12.624 6.14587C14.2677 6.14587 15.7458 7.1466 16.3563 8.67275L16.7085 9.5533C15.247 10.6183 14.0529 12.1033 13.3174 13.9145C12.2841 16.4589 12.3399 19.1914 13.2696 21.551C13.4526 22.0153 13.8158 22.3855 14.2764 22.5773C14.7371 22.769 15.2558 22.7659 15.7141 22.5686L30.3676 16.2603C31.2823 15.8665 31.719 14.8175 31.3539 13.8909C30.4238 11.5303 28.6076 9.51844 26.1116 8.45212C24.1171 7.60004 22.0009 7.48539 20.0508 7.98012L19.78 7.30324C18.6096 4.37711 15.7755 2.45837 12.624 2.45837C8.36737 2.45837 4.91671 5.90904 4.91671 10.1657V27.0417H4.30212C3.28385 27.0417 2.45837 27.8672 2.45837 28.8855C2.45837 29.9037 3.28385 30.7292 4.30212 30.7292H4.91671V31.3438C4.91671 31.3531 4.91678 31.3625 4.91692 31.3718C4.91668 31.4174 4.9167 31.4629 4.91672 31.5079L4.91673 31.6008C4.91672 32.5234 4.91671 33.0642 4.95499 33.6673C5.30393 39.1652 8.2749 44.2422 12.5808 47.5618C12.547 47.615 12.5156 47.6704 12.4868 47.728L10.0284 52.6446C9.57304 53.5554 9.9422 54.6629 10.853 55.1183C11.7638 55.5737 12.8712 55.2045 13.3266 54.2937L15.7056 49.5358C17.6765 50.5333 19.8199 51.1899 22.0491 51.4157C22.65 51.4766 23.0168 51.4903 23.6415 51.5138L23.6583 51.5144C25.478 51.5828 27.2593 51.6251 28.8855 51.6251C30.5117 51.6251 32.293 51.5828 34.1127 51.5144L34.1292 51.5138C34.7539 51.4903 35.121 51.4766 35.7219 51.4157C37.9513 51.1899 40.0949 50.5332 42.066 49.5355L44.4451 54.2937C44.9005 55.2045 46.008 55.5737 46.9187 55.1183C47.8295 54.6629 48.1987 53.5554 47.7433 52.6446L45.285 47.728C45.2561 47.6702 45.2246 47.6147 45.1907 47.5614C49.4963 44.2418 52.4671 39.165 52.816 33.6673C52.8543 33.0642 52.8543 32.5235 52.8542 31.601L52.8542 31.5079C52.8543 31.3601 52.8544 31.2065 52.8452 31.0647C52.8378 30.9516 52.8261 30.8397 52.8103 30.7292H53.4688C54.4871 30.7292 55.3125 29.9037 55.3125 28.8855C55.3125 27.8672 54.4871 27.0417 53.4688 27.0417H8.60421V10.1657Z" fill="white"/>
</svg>
