<svg width="59" height="59" viewBox="0 0 59 59" fill="none" xmlns="http://www.w3.org/2000/svg">
<path fill-rule="evenodd" clip-rule="evenodd" d="M24.5833 4.91663H22.125C15.1717 4.91663 11.6951 4.91663 9.53505 7.07671C7.37496 9.2368 7.37496 12.7134 7.37496 19.6666V52.2395H4.91663C3.89835 52.2395 3.07288 53.065 3.07288 54.0833C3.07288 55.1016 3.89835 55.927 4.91663 55.927H42.4062C43.4245 55.927 44.25 55.1016 44.25 54.0833C44.25 53.065 43.4245 52.2395 42.4062 52.2395H39.3333V43.6354H43.1964C44.1177 43.6354 44.8645 44.3823 44.8645 45.3036V45.4792C44.8645 48.534 47.341 51.0104 50.3958 51.0104C53.4506 51.0104 55.927 48.534 55.927 45.4792V18.6877C55.9271 18.3025 55.9271 18.0368 55.9125 17.7777C55.7757 15.3415 54.6787 13.059 52.8618 11.4303C52.6686 11.257 52.4611 11.0911 52.1603 10.8505L49.0892 8.39363C48.2941 7.75752 47.1338 7.88644 46.4977 8.68158C45.8616 9.47672 45.9905 10.637 46.7857 11.2731L49.817 13.6982C50.1722 13.9823 50.2939 14.0805 50.4004 14.176C51.4905 15.1532 52.1487 16.5228 52.2308 17.9845C52.2389 18.1273 52.2395 18.2836 52.2395 18.7385V19.6666H50.3958C48.3592 19.6666 46.7083 21.3176 46.7083 23.3541V29.3005C46.7083 30.8877 47.7239 32.2968 49.2297 32.7988L52.2395 33.802V45.4792C52.2395 46.4975 51.4141 47.3229 50.3958 47.3229C49.3775 47.3229 48.552 46.4975 48.552 45.4792V45.3036C48.552 42.3458 46.1542 39.9479 43.1964 39.9479H39.3333V19.6666C39.3333 12.7134 39.3333 9.2368 37.1732 7.07671C35.0131 4.91663 31.5365 4.91663 24.5833 4.91663ZM24.3027 23.0023C25.1759 23.5262 25.459 24.6587 24.9351 25.5319L22.923 28.8854H27.0416C27.7059 28.8854 28.3188 29.2427 28.6461 29.8207C28.9733 30.3987 28.9644 31.1081 28.6226 31.6777L24.9351 37.8236C24.4112 38.6967 23.2787 38.9799 22.4055 38.456C21.5324 37.9321 21.2492 36.7995 21.7731 35.9264L23.7852 32.5729H19.6666C19.0024 32.5729 18.3895 32.2156 18.0622 31.6375C17.7349 31.0595 17.7439 30.3501 18.0856 29.7805L21.7731 23.6347C22.297 22.7615 23.4296 22.4784 24.3027 23.0023Z" fill="white"/>
</svg>
