<svg width="59" height="59" viewBox="0 0 59 59" fill="none" xmlns="http://www.w3.org/2000/svg">
<path fill-rule="evenodd" clip-rule="evenodd" d="M29.5 54.0833C43.077 54.0833 54.0833 43.077 54.0833 29.5C54.0833 15.923 43.077 4.91663 29.5 4.91663C15.923 4.91663 4.91663 15.923 4.91663 29.5C4.91663 43.077 15.923 54.0833 29.5 54.0833ZM44.1359 31.3434H36.6427C36.3034 32.6617 35.6088 33.8374 34.6671 34.7622L38.4142 41.2525C41.4988 38.9093 43.6327 35.3795 44.1359 31.3434ZM35.2223 43.0989L31.4746 36.6076C30.8461 36.7819 30.1839 36.875 29.5 36.875C28.816 36.875 28.1537 36.7818 27.5252 36.6076L23.7775 43.0988C25.5371 43.8402 27.4707 44.25 29.5 44.25C31.5292 44.25 33.4627 43.8402 35.2223 43.0989ZM20.5855 41.2524L24.3327 34.7621C23.391 33.8373 22.6965 32.6617 22.3572 31.3434H14.864C15.3672 35.3795 17.5011 38.9091 20.5855 41.2524ZM44.1358 27.6559H36.6425C36.3032 26.3378 35.6086 25.1623 34.667 24.2376L38.4141 17.7474C41.4985 20.0905 43.6324 23.62 44.1358 27.6559ZM35.2222 15.901C33.4626 15.1597 31.5291 14.75 29.5 14.75C27.4707 14.75 25.5372 15.1597 23.7776 15.9011L27.5253 22.3923C28.1538 22.2181 28.816 22.125 29.5 22.125C30.1839 22.125 30.846 22.218 31.4744 22.3922L35.2222 15.901ZM24.3328 24.2377L20.5857 17.7474C17.5013 20.0905 15.3675 23.62 14.8641 27.6559H22.3574C22.6967 26.3378 23.3912 25.1624 24.3328 24.2377Z" fill="white"/>
</svg>
